<svg xmlns="http://www.w3.org/2000/svg" xmlns:xlink="http://www.w3.org/1999/xlink" width="428" height="90" viewBox="0 0 428 90">
  <defs>
    <clipPath id="clip-自定义大小_1">
      <rect width="428" height="90"/>
    </clipPath>
  </defs>
  <g id="自定义大小_1" data-name="自定义大小 – 1" clip-path="url(#clip-自定义大小_1)">
    <g id="图层_2" data-name="图层 2" transform="translate(-6.973 19.994)">
      <g id="图层_1" data-name="图层 1" transform="translate(6.973 0.006)">
        <path id="路径_1" data-name="路径 1" d="M455.164,18.25H425.39v4.461h-6.22V15.938H436.7V12.77h7.141v3.168h17.552v3.81a2.973,2.973,0,0,1-2.973,2.963h-3.256Zm-2.489,18.143c-3.843-3.047-8.029-5.838-12.728-9.276-4.606,3.438-8.327,6.229-12.547,9.253h-9.16c6.4-4.419,12.449-8.141,18.552-13.128h6.49c6.015,4.522,12.528,8.709,19.041,13.128Zm-31.992-8.123c2.563-2.368,5.355-5.159,7.746-7.588H435.1c-2.554,2.428-4.88,4.754-7.467,7.588Zm31.634,22.721h-30V37.849h35.821v7.3a5.838,5.838,0,0,1-5.834,5.838Zm-.693-10.83H429.14V48.7h19.818a2.67,2.67,0,0,0,2.666-2.689ZM452.9,28.271c-2.205-2.368-5-5.159-7.462-7.588h6.676c2.3,2.428,5.094,5.22,7.75,7.588Z" transform="translate(-230.776 -6.832)" fill="#666"/>
        <path id="路径_2" data-name="路径 2" d="M568.353,43.643h-6.569a10.141,10.141,0,0,0-1.177-1.968h-5.089a15.482,15.482,0,0,1,1.172,1.968h-9.058c1.023-.67,2.419-1.6,3.926-2.433h-7.09c-1.4.833-2.326,1.3-4.187,2.433H524v2.27h13.3c-3.992,2.177-9.109,4.968-13.3,7.294h8.839c4.652-2.791,7.443-4.652,12.3-7.294h2.847c4.387,2.642,6.713,4.5,12.3,7.76h7.909c-5.583-3.256-9.769-5.582-13.235-7.76h13.389Z" transform="translate(-287.335 -22.042)" fill="#666"/>
        <path id="路径_3" data-name="路径 3" d="M546.212,21V13.91H525.52V25.717h15.989a4.708,4.708,0,0,0,4.7-4.713Zm-6.466.656a1.74,1.74,0,0,1-1.74,1.745h-5.815V16.222h7.555Z" transform="translate(-288.148 -7.442)" fill="#666"/>
        <path id="路径_4" data-name="路径 4" d="M594.212,21V13.91H573.52V25.717h15.989A4.708,4.708,0,0,0,594.212,21Zm-6.466.656a1.74,1.74,0,0,1-1.74,1.745h-5.815V16.222h7.555Z" transform="translate(-313.818 -7.442)" fill="#666"/>
        <path id="路径_5" data-name="路径 5" d="M525.52,81.717h15.989a4.708,4.708,0,0,0,4.7-4.713V69.91H525.52Zm6.676-9.495h7.555V77.66a1.74,1.74,0,0,1-1.74,1.745H532.2Z" transform="translate(-288.148 -37.39)" fill="#666"/>
        <path id="路径_6" data-name="路径 6" d="M573.52,81.717h15.989a4.708,4.708,0,0,0,4.7-4.713V69.91H573.52Zm6.676-9.495h7.555V77.66a1.74,1.74,0,0,1-1.74,1.745H580.2Z" transform="translate(-313.818 -37.39)" fill="#666"/>
        <path id="路径_7" data-name="路径 7" d="M762.648,50.035H740.523V47.709h18.041a1.675,1.675,0,0,0,1.786-1.544V38.024H740.1v-13h17.478a1.675,1.675,0,0,0,1.763-1.568V15.345H739.63V13.019H766.5v9.146a5.15,5.15,0,0,1-5.145,5.15H747.194v8.411h20.292V45.2A4.838,4.838,0,0,1,762.648,50.035Zm9.769.121V12h7.094V50.147Z" transform="translate(-402.653 -6.42)" fill="#666"/>
        <path id="路径_8" data-name="路径 8" d="M839.66,13.64h2.866V11.779h7.141V13.64h4.606V11.779h7.141V13.64h2.815v2.326h-2.815v1.907h-7.141V15.966h-4.606v1.907h-7.141V15.966H839.66Zm1.693,11.728H839.66c1.089-2.326,2.019-4.652,2.949-6.9h6.671l-.623,1.256h14.887V30.639a2.911,2.911,0,0,1-3.1,2.717h-6.513V31.611a2.117,2.117,0,0,1-1.13.326H841.353Zm1.312,9.616h28.61c2.256,0,2.726-.163,3.573-.972h7.443c-.7,2.191-2.791,3.284-6.764,3.284h-9.537v1.991h16.44v2.326H865.968v2.07h18.18v2.326h-18.18v1.54a2.93,2.93,0,0,1-3.1,2.68H852.016V47.9h5.015a1.675,1.675,0,0,0,1.786-1.54v-.386H839.7V43.651h19.12V41.594H841.446V39.268h17.38V37.291H842.665Zm3.484-5.355h3.326a.465.465,0,0,0,.465-.4V25.689H846.15Zm8.4.772a1.512,1.512,0,0,1-.186.647h1.168a1.21,1.21,0,0,0,1.317-1.177V22.037h-9.058a14.858,14.858,0,0,1-.656,1.34h7.415Zm9.583,2.959a80.561,80.561,0,0,0,6.625-7.527c-.749-1.135-1.4-2.326-2.066-3.489H864.6c1.27-3.489,2.666-6.746,3.666-10.574h6.513c-.233.93-.419,1.786-.656,2.6h10.007V16.7h-1.363a49.1,49.1,0,0,1-4.978,9.211,71.928,71.928,0,0,0,6.341,7.443h-7.122a34.476,34.476,0,0,1-2.791-2.959c-.93,1.014-1.926,2.028-2.959,2.959ZM873.015,17.9c.423.893.847,1.828,1.363,2.721a35.333,35.333,0,0,0,2.019-3.936h-2.959Z" transform="translate(-456.148 -6.297)" fill="#666"/>
        <path id="路径_9" data-name="路径 9" d="M30,49.711H15.537A17.245,17.245,0,0,1,1.581,40.067,16.775,16.775,0,0,1,12.207,16.751a21.4,21.4,0,0,1,10.7-14.026,24.084,24.084,0,0,1,20.762-.7,21.59,21.59,0,0,1,8.42,7.285,14.421,14.421,0,0,1,7.28,1.758,10.956,10.956,0,0,1,5.168,10.784,15.389,15.389,0,0,1,7.355,10.067,15.156,15.156,0,0,1-3.256,12.361S63.914,49.715,58.4,49.715H38.319A16.645,16.645,0,0,1,27.8,45.063a14.277,14.277,0,0,1-4.387-9.7v-14.5s8.592.437,12.561-4.033c0,0,3.154,4.033,12.621,4.033v15.6s0,4.294-2.363,5.876H40.072s3.768-3.159,3.768-6.215V25.334a19.957,19.957,0,0,1-7.7-2.456,20,20,0,0,1-7.909,2.363v9.472a11,11,0,0,0,9.839,10.169H58.313a10.918,10.918,0,0,0,8.592-7.8,10.132,10.132,0,0,0-3.857-10.523,14.421,14.421,0,0,0-4.122-1.926,8.234,8.234,0,0,0-.7-8.155A7.467,7.467,0,0,0,49.9,14.727a18.2,18.2,0,0,0-11.044-9.3,17.952,17.952,0,0,0-18.32,5.35,19.008,19.008,0,0,0-4.21,9.993A12.682,12.682,0,0,0,6.243,27.171,12.2,12.2,0,0,0,8.173,41.2a12.361,12.361,0,0,0,7.443,3.6h8.425A13.319,13.319,0,0,0,30,49.711Z" transform="translate(0.027 -0.006)" fill="#df0000"/>
        <path id="路径_10" data-name="路径 10" d="M246.079,28.841h3.94v3.149H235.17a1.591,1.591,0,0,0-1.028.321c-.749.558-1.526,1.089-2.293,1.633-.135.093-.26.209-.5.4h18.608c.023.144.042.293.051.442v10.03a5.624,5.624,0,0,1-3.819,5.22,6.8,6.8,0,0,1-2.326.4H223.209a3.487,3.487,0,0,1-.5-.028V40.472a3.9,3.9,0,0,0-.465.293c-.93.651-1.861,1.317-2.791,1.954a.819.819,0,0,0-.414.782c.028.884,0,1.772,0,2.656v.549c-.181,0-.321.047-.465.047h-8.22a3.959,3.959,0,0,1-2.945-1.242,3.4,3.4,0,0,1-.991-2.387V14h12.607V37.773a1.624,1.624,0,0,0,.34-.116l7.667-5.438a1.093,1.093,0,0,0,.14-.154,3.312,3.312,0,0,0-1.191-.079h-4.871V28.841h11.77V26.32c-.251,0-.465-.033-.7-.033H221.818a6.149,6.149,0,0,1-.707-.028V23.306c.223,0,.465-.042.67-.042h11.1c.028-.791.028-1.521,0-2.326a18.409,18.409,0,0,0-1.963-.037h-9.769c-.126-.414-.172-9.067-.065-10.142.368-.107,28.2-.14,28.88-.023,0,.144.037.3.037.465v5.843a3.824,3.824,0,0,1-3.256,3.787,7.345,7.345,0,0,1-1.107.084h-7.36a6.694,6.694,0,0,0-.065,2.3,4.5,4.5,0,0,0,.5.047h7.327a1.265,1.265,0,0,0,.786-.247c.884-.647,1.786-1.275,2.68-1.907.14-.1.288-.186.5-.316,0,.2.023.335.023.465v4.187a.7.7,0,0,1-.34.651c-1.089.749-2.168,1.531-3.256,2.3-.14.1-.27.209-.4.312Zm-17.892,8.718a14.886,14.886,0,0,0,.042,3.219h16.282V37.555Zm16.333,6.462H228.136V47.24h14.017a5.742,5.742,0,0,0,.689-.037,1.907,1.907,0,0,0,1.651-1.563,13.569,13.569,0,0,0,0-1.628ZM211.807,31.828c0,.223-.028.409-.028.6v9.918a3.26,3.26,0,0,0,0,.465.847.847,0,0,0,.661.749,2.363,2.363,0,0,0,1.182,0c.126-1.182.065-11.342-.07-11.728Zm1.833-3.233V17.165h-1.833c-.116.679-.084,11.044.033,11.43Zm12.849-14.859v4.112h3.3V13.736Zm14.859,4.131c.851,0,1.661.037,2.466,0a.93.93,0,0,0,.842-1.037V14.076a2.293,2.293,0,0,0-.047-.312h-3.256Zm-7.313,0c1.037.028,2.033.037,3.01,0A23.4,23.4,0,0,0,237,13.75h-2.963Zm7.95,8.518a17.175,17.175,0,0,0-3.787,0v2.377c.307.167.5,0,.7-.144l2.791-1.954a2.282,2.282,0,0,0,.335-.274Z" transform="translate(-117.496 -5.705)" fill="#666"/>
        <path id="路径_11" data-name="路径 11" d="M671.042,46.471h4.968a17.012,17.012,0,0,0-.033-3.229c-.642-.112-42.9-.079-43.348.051v3.2h11.235l-9.644,20.739h.768l30.527-.037h4.038a6.215,6.215,0,0,0,2.238-.372,3.289,3.289,0,0,0,.642-.284,3.219,3.219,0,0,0,1.168-4.4c-2.177-4.252-4.368-8.49-6.541-12.742a.651.651,0,0,0-.684-.428h-6.941c.1.233.186.423.274.609l5.471,11.393c.209.433.428.856.609,1.3a1.182,1.182,0,0,1-.554,1.54,2.1,2.1,0,0,1-1.075.233H643.19a2.061,2.061,0,0,1-.489-.047l8.323-17.524Z" transform="translate(-345.43 -23.092)" fill="#666"/>
        <path id="路径_12" data-name="路径 12" d="M676.443,13.348c-.465-.135-38.031-.126-38.473,0V16.53h38.473Z" transform="translate(-348.285 -7.089)" fill="#666"/>
        <path id="路径_13" data-name="路径 13" d="M357.2,49.984c-.465-.744-.986-1.493-1.442-2.238a.819.819,0,0,0-.809-.437H346.4a5.8,5.8,0,0,1-.637,0h0a2.047,2.047,0,0,1-1.945-2.154V32.622a4.046,4.046,0,0,1,.033-.586H356.2c.028-1.093.047-2.107,0-3.159h-18.98V14.349c0-1.2.037-2.391-.028-3.573a62.366,62.366,0,0,0-6.462.042V28.882h-18.2c-.037,1.07-.042,2.084,0,3.154h9.914a18.258,18.258,0,0,1,2.019.042L312.541,50.445c.181,0,.26.033.344.033h6.159a.554.554,0,0,0,.554-.316,4.184,4.184,0,0,1,.233-.354q5.773-8.653,11.514-17.329a.888.888,0,0,1,.856-.465h4.513c.186,0,.377.028.609.028,0,.265.037.493.047.74V45.043a4.964,4.964,0,0,0,1.116,3.084,6.15,6.15,0,0,0,5.057,2.354h13.491a2.05,2.05,0,0,0,.465-.042C357.359,50.249,357.284,50.114,357.2,49.984Z" transform="translate(-174.23 -5.732)" fill="#666"/>
        <path id="路径_14" data-name="路径 14" d="M377.809,30.4a.782.782,0,0,0,.744-.433q3.6-5.759,7.2-11.5c.079-.13.144-.27.247-.465h-7.141L371.31,30.361l.507.042C373.813,30.4,375.818,30.384,377.809,30.4Z" transform="translate(-205.678 -9.629)" fill="#666"/>
        <path id="路径_15" data-name="路径 15" d="M321.963,29.957a.7.7,0,0,0,.679.372h6.1a1.769,1.769,0,0,0,.423-.042l-7.536-12.351c-.763-.093-6.713-.06-7.118.037.056.112.107.223.167.321Q318.329,24.128,321.963,29.957Z" transform="translate(-175.301 -9.565)" fill="#666"/>
      </g>
    </g>
  </g>
</svg>